<svg width="68" height="87" viewBox="0 0 68 87" fill="none" xmlns="http://www.w3.org/2000/svg">
<ellipse cx="35.5" cy="84.5" rx="7.5" ry="2.5" fill="black" fill-opacity="0.6"/>
<path fill-rule="evenodd" clip-rule="evenodd" d="M45.4435 66.9194C58.5914 62.221 68 49.6558 68 34.8932C68 16.1155 52.7777 0.89323 34 0.89323C15.2223 0.89323 0 16.1155 0 34.8932C0 50.7473 10.8512 64.0669 25.5318 67.8302L33.0523 75.3508C34.1458 76.4443 35.9186 76.4443 37.0121 75.3508L45.4435 66.9194Z" fill="white"/>
<mask id="path-3-inside-1_5032_15509" fill="white">
<path fill-rule="evenodd" clip-rule="evenodd" d="M44.4282 64.5704C56.6561 60.2003 65.4063 48.5142 65.4063 34.7843C65.4063 17.3199 51.2486 3.16221 33.7842 3.16221C16.3198 3.16221 2.16211 17.3199 2.16211 34.7843C2.16211 49.5298 12.2548 61.9181 25.9089 65.4179L32.7649 72.2739C33.8583 73.3673 35.6312 73.3673 36.7247 72.2739L44.4282 64.5704Z"/>
</mask>
<path fill-rule="evenodd" clip-rule="evenodd" d="M44.4282 64.5704C56.6561 60.2003 65.4063 48.5142 65.4063 34.7843C65.4063 17.3199 51.2486 3.16221 33.7842 3.16221C16.3198 3.16221 2.16211 17.3199 2.16211 34.7843C2.16211 49.5298 12.2548 61.9181 25.9089 65.4179L32.7649 72.2739C33.8583 73.3673 35.6312 73.3673 36.7247 72.2739L44.4282 64.5704Z" fill="white"/>
<path d="M44.4282 64.5704L43.4186 61.7453C43.0005 61.8948 42.6208 62.1351 42.3069 62.449L44.4282 64.5704ZM25.9089 65.4179L28.0303 63.2966C27.6501 62.9164 27.1747 62.6454 26.6538 62.5119L25.9089 65.4179ZM32.7649 72.2739L34.8862 70.1525L32.7649 72.2739ZM36.7247 72.2739L38.846 74.3952H38.846L36.7247 72.2739ZM62.4063 34.7843C62.4063 47.2069 54.4906 57.7884 43.4186 61.7453L45.4378 67.3954C58.8217 62.6122 68.4063 49.8214 68.4063 34.7843H62.4063ZM33.7842 6.16221C49.5918 6.16221 62.4063 18.9768 62.4063 34.7843H68.4063C68.4063 15.6631 52.9055 0.162209 33.7842 0.162209V6.16221ZM5.16211 34.7843C5.16211 18.9768 17.9767 6.16221 33.7842 6.16221V0.162209C14.663 0.162209 -0.837891 15.6631 -0.837891 34.7843H5.16211ZM26.6538 62.5119C14.2944 59.3439 5.16211 48.1268 5.16211 34.7843H-0.837891C-0.837891 50.9328 10.2151 64.4923 25.1641 68.324L26.6538 62.5119ZM34.8862 70.1525L28.0303 63.2966L23.7876 67.5393L30.6435 74.3952L34.8862 70.1525ZM34.6033 70.1525C34.6814 70.0744 34.8081 70.0744 34.8862 70.1525L30.6435 74.3952C32.9086 76.6602 36.5809 76.6602 38.846 74.3952L34.6033 70.1525ZM42.3069 62.449L34.6033 70.1525L38.846 74.3952L46.5495 66.6917L42.3069 62.449Z" fill="#86C232" mask="url(#path-3-inside-1_5032_15509)"/>
<path fill-rule="evenodd" clip-rule="evenodd" d="M30.1133 26.4368C33.1594 25.7964 35.4463 23.094 35.4463 19.8575C35.4463 16.1444 32.4362 13.1344 28.7231 13.1344C25.0101 13.1344 22 16.1444 22 19.8575C22 23.1087 24.3077 25.8209 27.3745 26.4454C27.3729 26.4727 27.3721 26.5002 27.3721 26.5279V31.0473C27.3721 31.8051 27.9864 32.4194 28.7442 32.4194C29.502 32.4194 30.1163 31.8051 30.1163 31.0473V26.5279C30.1163 26.4973 30.1153 26.4669 30.1133 26.4368Z" fill="#86C232"/>
<path fill-rule="evenodd" clip-rule="evenodd" d="M40.9794 26.789C43.847 26.1868 46 23.6431 46 20.5965C46 17.1018 43.1671 14.2688 39.6724 14.2688C36.1777 14.2688 33.3447 17.1018 33.3447 20.5965C33.3447 23.6559 35.516 26.2083 38.4017 26.7965C38.4002 26.8223 38.3994 26.8483 38.3994 26.8745V31.128C38.3994 31.8412 38.9776 32.4194 39.6908 32.4194C40.404 32.4194 40.9822 31.8412 40.9822 31.128V26.8745C40.9822 26.8458 40.9813 26.8173 40.9794 26.789Z" fill="#86C232"/>
<mask id="path-7-outside-2_5032_15509" maskUnits="userSpaceOnUse" x="25.5381" y="11" width="17" height="24" fill="black">
<rect fill="white" x="25.5381" y="11" width="17" height="24"/>
<path fill-rule="evenodd" clip-rule="evenodd" d="M35.6048 26.8676C39.0097 26.1523 41.5663 23.1317 41.5663 19.5141C41.5663 15.3642 38.2021 12 34.0522 12C29.9023 12 26.5381 15.3642 26.5381 19.5141C26.5381 23.1474 29.1168 26.1784 32.5438 26.8767C32.5419 26.9073 32.541 26.9382 32.541 26.9692V32.0203C32.541 32.8673 33.2276 33.5539 34.0746 33.5539C34.9215 33.5539 35.6081 32.8673 35.6081 32.0203V26.9692C35.6081 26.9351 35.607 26.9012 35.6048 26.8676Z"/>
</mask>
<path fill-rule="evenodd" clip-rule="evenodd" d="M35.6048 26.8676C39.0097 26.1523 41.5663 23.1317 41.5663 19.5141C41.5663 15.3642 38.2021 12 34.0522 12C29.9023 12 26.5381 15.3642 26.5381 19.5141C26.5381 23.1474 29.1168 26.1784 32.5438 26.8767C32.5419 26.9073 32.541 26.9382 32.541 26.9692V32.0203C32.541 32.8673 33.2276 33.5539 34.0746 33.5539C34.9215 33.5539 35.6081 32.8673 35.6081 32.0203V26.9692C35.6081 26.9351 35.607 26.9012 35.6048 26.8676Z" fill="#86C232"/>
<path d="M35.6048 26.8676L35.4609 26.1826L34.8666 26.3074L34.9063 26.9133L35.6048 26.8676ZM32.5438 26.8767L33.2425 26.9183L33.2786 26.3121L32.6835 26.1908L32.5438 26.8767ZM40.8663 19.5141C40.8663 22.7939 38.5484 25.5339 35.4609 26.1826L35.7487 27.5526C39.4711 26.7706 42.2663 23.4696 42.2663 19.5141H40.8663ZM34.0522 12.7C37.8155 12.7 40.8663 15.7508 40.8663 19.5141H42.2663C42.2663 14.9776 38.5887 11.3 34.0522 11.3V12.7ZM27.2381 19.5141C27.2381 15.7508 30.2889 12.7 34.0522 12.7V11.3C29.5157 11.3 25.8381 14.9776 25.8381 19.5141H27.2381ZM32.6835 26.1908C29.5761 25.5576 27.2381 22.8081 27.2381 19.5141H25.8381C25.8381 23.4867 28.6574 26.7992 32.404 27.5626L32.6835 26.1908ZM33.241 26.9692C33.241 26.9521 33.2415 26.9351 33.2425 26.9183L31.845 26.8352C31.8424 26.8796 31.841 26.9243 31.841 26.9692H33.241ZM33.241 32.0203V26.9692H31.841V32.0203H33.241ZM34.0746 32.8539C33.6142 32.8539 33.241 32.4807 33.241 32.0203H31.841C31.841 33.2539 32.841 34.2539 34.0746 34.2539V32.8539ZM34.9081 32.0203C34.9081 32.4807 34.5349 32.8539 34.0746 32.8539V34.2539C35.3081 34.2539 36.3081 33.2539 36.3081 32.0203H34.9081ZM34.9081 26.9692V32.0203H36.3081V26.9692H34.9081ZM34.9063 26.9133C34.9075 26.9317 34.9081 26.9503 34.9081 26.9692H36.3081C36.3081 26.9198 36.3065 26.8707 36.3033 26.8219L34.9063 26.9133Z" fill="white" mask="url(#path-7-outside-2_5032_15509)"/>
<path d="M20.2501 42.64C20.3301 42.1067 20.4795 41.6373 20.6981 41.232C20.9168 40.8267 21.1915 40.488 21.5221 40.216C21.8528 39.9387 22.2315 39.7307 22.6581 39.592C23.0901 39.4533 23.5541 39.384 24.0501 39.384C24.5461 39.384 25.0021 39.456 25.4181 39.6C25.8341 39.7387 26.1888 39.9387 26.4821 40.2C26.7808 40.456 27.0128 40.7653 27.1781 41.128C27.3435 41.4907 27.4261 41.8907 27.4261 42.328C27.4261 42.696 27.3808 43.0213 27.2901 43.304C27.1995 43.5867 27.0688 43.8347 26.8981 44.048C26.7328 44.2613 26.5301 44.4427 26.2901 44.592C26.0501 44.736 25.7808 44.856 25.4821 44.952C26.2128 45.1547 26.7621 45.4853 27.1301 45.944C27.4981 46.3973 27.6821 46.9733 27.6821 47.672C27.6821 48.2107 27.5808 48.696 27.3781 49.128C27.1755 49.5547 26.8981 49.9173 26.5461 50.216C26.1941 50.5093 25.7835 50.736 25.3141 50.896C24.8501 51.0507 24.3541 51.128 23.8261 51.128C23.2235 51.128 22.7061 51.056 22.2741 50.912C21.8421 50.7627 21.4741 50.5573 21.1701 50.296C20.8661 50.0293 20.6128 49.712 20.4101 49.344C20.2128 48.9707 20.0448 48.5627 19.9061 48.12L20.5861 47.832C20.7621 47.7573 20.9328 47.736 21.0981 47.768C21.2635 47.8 21.3835 47.8933 21.4581 48.048C21.5381 48.208 21.6288 48.3893 21.7301 48.592C21.8368 48.7893 21.9781 48.9787 22.1541 49.16C22.3301 49.336 22.5488 49.4853 22.8101 49.608C23.0768 49.7307 23.4101 49.792 23.8101 49.792C24.1941 49.792 24.5301 49.7307 24.8181 49.608C25.1061 49.48 25.3461 49.3173 25.5381 49.12C25.7301 48.9173 25.8741 48.6933 25.9701 48.448C26.0661 48.2027 26.1141 47.96 26.1141 47.72C26.1141 47.4213 26.0768 47.1467 26.0021 46.896C25.9275 46.6453 25.7835 46.432 25.5701 46.256C25.3621 46.0747 25.0715 45.9333 24.6981 45.832C24.3248 45.7307 23.8395 45.68 23.2421 45.68V44.544C23.7328 44.5387 24.1461 44.488 24.4821 44.392C24.8235 44.296 25.0981 44.1627 25.3061 43.992C25.5141 43.8213 25.6635 43.6187 25.7541 43.384C25.8501 43.1493 25.8981 42.888 25.8981 42.6C25.8981 42.2853 25.8501 42.0107 25.7541 41.776C25.6581 41.5413 25.5221 41.3467 25.3461 41.192C25.1755 41.032 24.9701 40.9147 24.7301 40.84C24.4955 40.76 24.2395 40.72 23.9621 40.72C23.6848 40.72 23.4288 40.76 23.1941 40.84C22.9595 40.92 22.7515 41.032 22.5701 41.176C22.3888 41.32 22.2368 41.4907 22.1141 41.688C21.9915 41.8853 21.9035 42.0987 21.8501 42.328C21.7755 42.5307 21.6795 42.6667 21.5621 42.736C21.4501 42.8053 21.2875 42.8213 21.0741 42.784L20.2501 42.64ZM37.6754 45.256C37.6754 46.2587 37.566 47.128 37.3474 47.864C37.134 48.6 36.838 49.2107 36.4594 49.696C36.086 50.176 35.6434 50.5333 35.1314 50.768C34.6247 51.0027 34.078 51.12 33.4914 51.12C32.9047 51.12 32.3554 51.0027 31.8434 50.768C31.3367 50.5333 30.8967 50.176 30.5234 49.696C30.15 49.2107 29.8567 48.6 29.6434 47.864C29.43 47.128 29.3234 46.2587 29.3234 45.256C29.3234 44.2533 29.43 43.384 29.6434 42.648C29.8567 41.9067 30.15 41.296 30.5234 40.816C30.8967 40.3307 31.3367 39.9707 31.8434 39.736C32.3554 39.5013 32.9047 39.384 33.4914 39.384C34.078 39.384 34.6247 39.5013 35.1314 39.736C35.6434 39.9707 36.086 40.3307 36.4594 40.816C36.838 41.296 37.134 41.9067 37.3474 42.648C37.566 43.384 37.6754 44.2533 37.6754 45.256ZM36.0594 45.256C36.0594 44.392 35.9874 43.6693 35.8434 43.088C35.7047 42.5067 35.5154 42.04 35.2754 41.688C35.0407 41.3307 34.7687 41.0773 34.4594 40.928C34.15 40.7787 33.8274 40.704 33.4914 40.704C33.1554 40.704 32.8327 40.7787 32.5234 40.928C32.214 41.0773 31.9394 41.3307 31.6994 41.688C31.4647 42.04 31.278 42.5067 31.1394 43.088C31.0007 43.6693 30.9314 44.392 30.9314 45.256C30.9314 46.12 31.0007 46.8427 31.1394 47.424C31.278 48.0053 31.4647 48.472 31.6994 48.824C31.9394 49.176 32.214 49.4267 32.5234 49.576C32.8327 49.7253 33.1554 49.8 33.4914 49.8C33.8274 49.8 34.15 49.7253 34.4594 49.576C34.7687 49.4267 35.0407 49.176 35.2754 48.824C35.5154 48.472 35.7047 48.0053 35.8434 47.424C35.9874 46.8427 36.0594 46.12 36.0594 45.256ZM44.2686 46.808V42.328C44.2686 42.1733 44.2713 42.0107 44.2766 41.84C44.2873 41.664 44.306 41.4827 44.3326 41.296L40.3086 46.808H44.2686ZM47.3006 46.808V47.712C47.3006 47.8027 47.2713 47.88 47.2126 47.944C47.154 48.008 47.0713 48.04 46.9646 48.04H45.6366V51H44.2686V48.04H39.2286C39.1113 48.04 39.0126 48.008 38.9326 47.944C38.8526 47.8747 38.7993 47.7893 38.7726 47.688L38.6126 46.888L44.1646 39.504H45.6366V46.808H47.3006Z" fill="#222629"/>
</svg>
