<svg width="68" height="77" viewBox="0 0 68 77" fill="none" xmlns="http://www.w3.org/2000/svg">
<path fill-rule="evenodd" clip-rule="evenodd" d="M45.4435 66.9194C58.5914 62.221 68 49.6558 68 34.8932C68 16.1156 52.7777 0.893234 34 0.893234C15.2223 0.893234 0 16.1156 0 34.8932C0 50.7473 10.8512 64.0669 25.5318 67.8302L33.0523 75.3508C34.1458 76.4443 35.9186 76.4443 37.0121 75.3508L45.4435 66.9194Z" fill="white"/>
<mask id="path-2-inside-1_4813_14534" fill="white">
<path fill-rule="evenodd" clip-rule="evenodd" d="M44.4282 64.5704C56.6561 60.2003 65.4063 48.5142 65.4063 34.7843C65.4063 17.3199 51.2486 3.16222 33.7842 3.16222C16.3198 3.16222 2.16211 17.3199 2.16211 34.7843C2.16211 49.5298 12.2548 61.9181 25.909 65.418L32.7649 72.2739C33.8583 73.3673 35.6312 73.3673 36.7247 72.2739L44.4282 64.5704Z"/>
</mask>
<path fill-rule="evenodd" clip-rule="evenodd" d="M44.4282 64.5704C56.6561 60.2003 65.4063 48.5142 65.4063 34.7843C65.4063 17.3199 51.2486 3.16222 33.7842 3.16222C16.3198 3.16222 2.16211 17.3199 2.16211 34.7843C2.16211 49.5298 12.2548 61.9181 25.909 65.418L32.7649 72.2739C33.8583 73.3673 35.6312 73.3673 36.7247 72.2739L44.4282 64.5704Z" fill="white"/>
<path d="M44.4282 64.5704L43.4186 61.7453C43.0005 61.8948 42.6208 62.1351 42.3068 62.449L44.4282 64.5704ZM25.909 65.418L28.0303 63.2966C27.6501 62.9164 27.1747 62.6454 26.6538 62.5119L25.909 65.418ZM36.7247 72.2739L38.846 74.3952H38.846L36.7247 72.2739ZM62.4063 34.7843C62.4063 47.2069 54.4906 57.7884 43.4186 61.7453L45.4378 67.3954C58.8217 62.6122 68.4063 49.8214 68.4063 34.7843H62.4063ZM33.7842 6.16222C49.5918 6.16222 62.4063 18.9768 62.4063 34.7843H68.4063C68.4063 15.6631 52.9055 0.162216 33.7842 0.162216V6.16222ZM5.16211 34.7843C5.16211 18.9768 17.9767 6.16222 33.7842 6.16222V0.162216C14.663 0.162216 -0.837891 15.6631 -0.837891 34.7843H5.16211ZM26.6538 62.5119C14.2944 59.3439 5.16211 48.1268 5.16211 34.7843H-0.837891C-0.837891 50.9329 10.2151 64.4923 25.1641 68.324L26.6538 62.5119ZM34.8862 70.1525L28.0303 63.2966L23.7876 67.5393L30.6435 74.3952L34.8862 70.1525ZM34.6033 70.1525C34.6814 70.0744 34.8081 70.0744 34.8862 70.1525L30.6435 74.3952C32.9086 76.6602 36.5809 76.6602 38.846 74.3952L34.6033 70.1525ZM42.3068 62.449L34.6033 70.1525L38.846 74.3952L46.5495 66.6917L42.3068 62.449Z" fill="#86C232" mask="url(#path-2-inside-1_4813_14534)"/>
<path fill-rule="evenodd" clip-rule="evenodd" d="M30.1133 26.4368C33.1594 25.7964 35.4463 23.094 35.4463 19.8575C35.4463 16.1445 32.4362 13.1344 28.7231 13.1344C25.0101 13.1344 22 16.1445 22 19.8575C22 23.1087 24.3077 25.8209 27.3745 26.4454C27.3729 26.4727 27.3721 26.5002 27.3721 26.5279V31.0473C27.3721 31.8051 27.9864 32.4194 28.7442 32.4194C29.502 32.4194 30.1163 31.8051 30.1163 31.0473V26.5279C30.1163 26.4973 30.1153 26.4669 30.1133 26.4368Z" fill="#86C232"/>
<path fill-rule="evenodd" clip-rule="evenodd" d="M40.9794 26.789C43.847 26.1868 46 23.6431 46 20.5965C46 17.1018 43.1671 14.2688 39.6724 14.2688C36.1777 14.2688 33.3447 17.1018 33.3447 20.5965C33.3447 23.6559 35.516 26.2083 38.4017 26.7965C38.4002 26.8223 38.3994 26.8483 38.3994 26.8745V31.128C38.3994 31.8412 38.9776 32.4194 39.6908 32.4194C40.404 32.4194 40.9822 31.8412 40.9822 31.128V26.8745C40.9822 26.8458 40.9813 26.8173 40.9794 26.789Z" fill="#86C232"/>
<mask id="path-6-outside-2_4813_14534" maskUnits="userSpaceOnUse" x="25.5381" y="11" width="17" height="24" fill="black">
<rect fill="white" x="25.5381" y="11" width="17" height="24"/>
<path fill-rule="evenodd" clip-rule="evenodd" d="M35.6048 26.8676C39.0097 26.1523 41.5663 23.1317 41.5663 19.5141C41.5663 15.3642 38.2021 12 34.0522 12C29.9023 12 26.5381 15.3642 26.5381 19.5141C26.5381 23.1474 29.1168 26.1784 32.5438 26.8767C32.5419 26.9073 32.541 26.9382 32.541 26.9692V32.0203C32.541 32.8673 33.2276 33.5539 34.0746 33.5539C34.9215 33.5539 35.6081 32.8673 35.6081 32.0203V26.9692C35.6081 26.9351 35.607 26.9012 35.6048 26.8676Z"/>
</mask>
<path fill-rule="evenodd" clip-rule="evenodd" d="M35.6048 26.8676C39.0097 26.1523 41.5663 23.1317 41.5663 19.5141C41.5663 15.3642 38.2021 12 34.0522 12C29.9023 12 26.5381 15.3642 26.5381 19.5141C26.5381 23.1474 29.1168 26.1784 32.5438 26.8767C32.5419 26.9073 32.541 26.9382 32.541 26.9692V32.0203C32.541 32.8673 33.2276 33.5539 34.0746 33.5539C34.9215 33.5539 35.6081 32.8673 35.6081 32.0203V26.9692C35.6081 26.9351 35.607 26.9012 35.6048 26.8676Z" fill="#86C232"/>
<path d="M35.6048 26.8676L35.4609 26.1826L34.8666 26.3074L34.9063 26.9133L35.6048 26.8676ZM32.5438 26.8767L33.2425 26.9183L33.2786 26.3121L32.6835 26.1908L32.5438 26.8767ZM40.8663 19.5141C40.8663 22.7939 38.5484 25.5339 35.4609 26.1826L35.7487 27.5526C39.4711 26.7706 42.2663 23.4696 42.2663 19.5141H40.8663ZM34.0522 12.7C37.8155 12.7 40.8663 15.7508 40.8663 19.5141H42.2663C42.2663 14.9776 38.5887 11.3 34.0522 11.3V12.7ZM27.2381 19.5141C27.2381 15.7508 30.2889 12.7 34.0522 12.7V11.3C29.5157 11.3 25.8381 14.9776 25.8381 19.5141H27.2381ZM32.6835 26.1908C29.5761 25.5576 27.2381 22.8081 27.2381 19.5141H25.8381C25.8381 23.4867 28.6574 26.7992 32.404 27.5626L32.6835 26.1908ZM33.241 26.9692C33.241 26.9521 33.2415 26.9351 33.2425 26.9183L31.845 26.8352C31.8424 26.8796 31.841 26.9243 31.841 26.9692H33.241ZM33.241 32.0203V26.9692H31.841V32.0203H33.241ZM34.0746 32.8539C33.6142 32.8539 33.241 32.4807 33.241 32.0203H31.841C31.841 33.2539 32.841 34.2539 34.0746 34.2539V32.8539ZM34.9081 32.0203C34.9081 32.4807 34.5349 32.8539 34.0746 32.8539V34.2539C35.3081 34.2539 36.3081 33.2539 36.3081 32.0203H34.9081ZM34.9081 26.9692V32.0203H36.3081V26.9692H34.9081ZM34.9063 26.9133C34.9075 26.9317 34.9081 26.9504 34.9081 26.9692H36.3081C36.3081 26.9198 36.3065 26.8707 36.3033 26.8219L34.9063 26.9133Z" fill="white" mask="url(#path-6-outside-2_4813_14534)"/>
</svg>
